<svg version="1.1" xmlns="http://www.w3.org/2000/svg" xmlns:xlink="http://www.w3.org/1999/xlink" width="500" height="500"><g data-paper-data="{&quot;description&quot;:&quot;Logo for goormy\n===============\n\nThis logo was generated by MarkMaker at http://emblemmatic.org/markmaker/ and may be composed of elements designed by others.\n\nThe font is Poppins Medium designed by Indian Type Foundry and released under the OFL license via Google Fonts: https://www.google.com/fonts/specimen/Poppins. The font includes this copyright statement: Copyright (c) 2014 Indian Type Foundry (info@indiantypefoundry.com)\n\nMarkMaker uses semantic data from the Princeton University WordNet database http://wordnet.princeton.edu and font descriptions from Google Fonts https://www.google.com/fonts.&quot;}" fill="#0f1010" fill-rule="nonzero" stroke="none" stroke-width="1" stroke-linecap="butt" stroke-linejoin="miter" stroke-miterlimit="10" stroke-dasharray="" stroke-dashoffset="0" font-family="none" font-weight="none" font-size="none" text-anchor="none" style="mix-blend-mode: normal"><g data-paper-data="{&quot;elementType&quot;:&quot;logo&quot;}"><g data-paper-data="{&quot;elementType&quot;:&quot;text&quot;}"><g data-paper-data="{&quot;baseline&quot;:56,&quot;elementType&quot;:&quot;row&quot;}"><g data-paper-data="{&quot;baselineProportion&quot;:0.673076923076923,&quot;fontSize&quot;:100,&quot;baseline&quot;:56,&quot;elementType&quot;:&quot;word&quot;}"><path d="M77.80005,266.35926c-7.84104,0 -14.43464,-2.86911 -19.78081,-8.60732c-5.34616,-5.73822 -8.01925,-13.08028 -8.01925,-22.0262c0,-8.94591 2.65526,-16.2167 7.96578,-21.81235c5.31052,-5.59565 11.92195,-8.39348 19.83427,-8.39348c4.63334,0 8.71425,1.05141 12.24272,3.15424c3.52847,2.10282 6.25501,4.86501 8.17963,8.28655v-10.47848h12.29618v59.87704c0,8.26873 -2.54834,15.02272 -7.64501,20.26196c-5.09668,5.23924 -11.8863,7.85886 -20.36889,7.85886c-8.48258,0 -15.36131,-1.87116 -20.63619,-5.61347c-5.27488,-3.74231 -8.26873,-8.82117 -8.98156,-15.23657h12.08233c0.92667,3.06513 2.90475,5.54219 5.93424,7.43117c3.02949,1.88898 6.82527,2.83347 11.38733,2.83347c4.56206,0 8.35784,-1.49693 11.38733,-4.49078c3.02949,-2.99385 4.54424,-7.34207 4.54424,-13.04464v-11.97541c-1.9959,3.63539 -4.74027,6.54014 -8.23309,8.71425c-3.49283,2.17411 -7.55591,3.26116 -12.18925,3.26116M92.9297,250.37423c0,0 0.88212,-0.89994 2.64635,-2.69981c1.76423,-1.79988 2.64635,-5.72931 2.64635,-11.78829c0,-6.05899 -1.76423,-10.87053 -5.2927,-14.43464c-3.52847,-3.56411 -7.7163,-5.34616 -12.56349,-5.34616c-4.84719,0 -9.03502,1.74641 -12.56349,5.23924c-3.52847,3.49283 -5.2927,8.26873 -5.2927,14.32772c0,6.05899 1.76423,10.924 5.2927,14.59503c3.52847,3.67103 7.7163,5.50655 12.56349,5.50655c4.84719,0 9.03502,-1.79988 12.56349,-5.39963z" data-paper-data="{&quot;elementType&quot;:&quot;letter&quot;,&quot;baseline&quot;:56,&quot;baselineProportion&quot;:0.673076923076923,&quot;fontSize&quot;:100}"></path><path d="M148.5298,266.35926c0,0 -2.14738,0 -6.44213,0c-4.29475,0 -9.22213,-2.79783 -14.78214,-8.39348c-5.56001,-5.59565 -8.34002,-12.93772 -8.34002,-22.0262c0,-9.08848 2.86911,-16.43054 8.60732,-22.0262c5.73822,-5.59565 12.88426,-8.39348 21.43812,-8.39348c8.55386,0 15.6999,2.79783 21.43812,8.39348c5.73822,5.59565 8.60732,12.9199 8.60732,21.97273c0,9.05284 -2.94039,16.3949 -8.82117,22.0262c-5.88078,5.63129 -13.11592,8.44694 -21.70543,8.44694zM161.20021,250.74846c0,0 0.89103,-0.89103 2.67308,-2.67308c1.78205,-1.78205 2.67308,-5.84514 2.67308,-12.18925c0,-6.34411 -1.72859,-11.28041 -5.18578,-14.80887c-3.45719,-3.52847 -7.64501,-5.2927 -12.56349,-5.2927c-4.91847,0 -9.05284,1.76423 -12.4031,5.2927c-3.35026,3.52847 -5.02539,8.48258 -5.02539,14.86234c0,6.37976 1.63949,11.33387 4.91847,14.86234c3.27898,3.52847 7.35989,5.2927 12.24272,5.2927c4.88283,0 9.1063,-1.78205 12.67041,-5.34616" data-paper-data="{&quot;elementType&quot;:&quot;letter&quot;,&quot;baseline&quot;:56,&quot;baselineProportion&quot;:0.9841827768014059,&quot;fontSize&quot;:100}"></path><path d="M213.11147,266.35926c0,0 -2.14738,0 -6.44213,0c-4.29475,0 -9.22213,-2.79783 -14.78214,-8.39348c-5.56001,-5.59565 -8.34002,-12.93772 -8.34002,-22.0262c0,-9.08848 2.86911,-16.43054 8.60732,-22.0262c5.73822,-5.59565 12.88426,-8.39348 21.43812,-8.39348c8.55386,0 15.6999,2.79783 21.43812,8.39348c5.73822,5.59565 8.60732,12.9199 8.60732,21.97273c0,9.05284 -2.94039,16.3949 -8.82117,22.0262c-5.88078,5.63129 -13.11592,8.44694 -21.70543,8.44694zM225.78188,250.74846c0,0 0.89103,-0.89103 2.67308,-2.67308c1.78205,-1.78205 2.67308,-5.84514 2.67308,-12.18925c0,-6.34411 -1.72859,-11.28041 -5.18578,-14.80887c-3.45719,-3.52847 -7.64501,-5.2927 -12.56349,-5.2927c-4.91847,0 -9.05284,1.76423 -12.4031,5.2927c-3.35026,3.52847 -5.02539,8.48258 -5.02539,14.86234c0,6.37976 1.63949,11.33387 4.91847,14.86234c3.27898,3.52847 7.35989,5.2927 12.24272,5.2927c4.88283,0 9.1063,-1.78205 12.67041,-5.34616" data-paper-data="{&quot;elementType&quot;:&quot;letter&quot;,&quot;baseline&quot;:56,&quot;baselineProportion&quot;:0.9841827768014059,&quot;fontSize&quot;:100}"></path><path d="M264.27426,206.48222v10.26464c3.77796,-7.48463 9.65874,-11.22694 17.64234,-11.22694v12.61695h-3.10078c-4.77591,0 -8.39348,1.2118 -10.85271,3.63539c-2.45924,2.42359 -3.68885,6.62924 -3.68885,12.61695v31.00775h-12.18925v-58.91473z" data-paper-data="{&quot;elementType&quot;:&quot;letter&quot;,&quot;baseline&quot;:56,&quot;baselineProportion&quot;:1,&quot;fontSize&quot;:100}"></path><path d="M301.69741,206.48222v9.30233c3.92052,-6.84309 10.19335,-10.26464 18.8185,-10.26464c4.56206,0 8.62514,1.06923 12.18925,3.2077c3.56411,2.13847 6.27283,5.23924 8.12617,9.30233c2.06718,-3.92052 4.93629,-6.98565 8.60732,-9.1954c3.67103,-2.20975 7.82322,-3.31462 12.45656,-3.31462c6.77181,0 12.33182,2.19193 16.68003,6.57578c4.34821,4.38385 6.52232,10.56758 6.52232,18.55119v34.75007h-12.18925v-32.93237c0,-5.27488 -1.31872,-9.32015 -3.95616,-12.13579c-2.63744,-2.81565 -6.23719,-4.22347 -10.79925,-4.22347c-4.56206,0 -8.16181,1.40782 -10.79925,4.22347c-2.63744,2.81565 -3.95616,6.86091 -3.95616,12.13579v32.93237h-12.08233v-32.93237c0,-5.27488 -1.31872,-9.32015 -3.95616,-12.13579c-2.63744,-2.81565 -6.23719,-4.22347 -10.79925,-4.22347c-4.56206,0 -8.17963,1.40782 -10.85271,4.22347c-2.67308,2.81565 -4.00962,6.86091 -4.00962,12.13579v32.93237h-12.18925v-58.91473z" data-paper-data="{&quot;elementType&quot;:&quot;letter&quot;,&quot;baseline&quot;:56,&quot;baselineProportion&quot;:1,&quot;fontSize&quot;:100}"></path><path d="M413.21839,264.43464l-23.20235,-57.95242h13.57926l16.57311,44.90778l17.21465,-44.90778h12.61695l-36.14007,86.60786h-12.61695z" data-paper-data="{&quot;elementType&quot;:&quot;letter&quot;,&quot;baseline&quot;:55.1,&quot;baselineProportion&quot;:0.6802469135802469,&quot;fontSize&quot;:100}"></path></g></g></g></g></g></svg>